<?xml version="1.0" standalone="no"?>
<!DOCTYPE svg PUBLIC "-//W3C//DTD SVG 20010904//EN"
 "http://www.w3.org/TR/2001/REC-SVG-20010904/DTD/svg10.dtd">
<svg version="1.0" xmlns="http://www.w3.org/2000/svg"
 width="257.000000pt" height="257.000000pt" viewBox="0 0 257.000000 257.000000"
 preserveAspectRatio="xMidYMid meet">
<metadata>
Created by potrace 1.11, written by Peter Selinger 2001-2013
</metadata>
<g transform="translate(0.000000,257.000000) scale(0.100000,-0.100000)"
fill="#000000" stroke="none">
<path d="M1720 2169 c0 -5 -7 -6 -15 -3 -8 4 -15 1 -15 -6 0 -6 -4 -8 -10 -5
-5 3 -10 1 -10 -5 0 -6 -4 -8 -10 -5 -5 3 -23 -1 -40 -10 -16 -8 -30 -13 -30
-11 0 3 -12 -6 -26 -19 -15 -14 -31 -25 -37 -25 -5 0 -23 -13 -38 -30 -16 -16
-29 -27 -29 -23 0 4 -11 -8 -25 -27 -14 -19 -25 -30 -25 -24 0 5 -10 21 -23
36 -12 15 -38 50 -57 77 -19 28 -40 51 -46 51 -19 0 -24 -28 -9 -44 8 -8 15
-18 15 -23 0 -5 9 -15 20 -23 11 -8 20 -19 20 -25 0 -6 8 -20 18 -31 39 -45
42 -59 17 -86 -13 -14 -21 -29 -17 -33 4 -4 0 -12 -8 -18 -8 -7 -16 -19 -18
-27 -2 -8 -10 -28 -17 -45 -14 -30 -39 -111 -40 -130 0 -5 -3 -14 -6 -20 -3
-5 -5 -21 -4 -35 0 -14 -4 -28 -10 -32 -6 -5 -5 -8 3 -8 8 0 10 -5 6 -12 -5
-7 -7 -27 -5 -44 1 -18 -3 -35 -10 -40 -7 -4 -10 -3 -6 3 9 14 -19 37 -33 28
-5 -3 -10 1 -10 9 0 9 -5 16 -11 16 -5 0 -7 -5 -3 -11 5 -8 1 -8 -14 0 -27 14
-35 14 -26 -1 6 -10 4 -10 -7 -2 -8 6 -44 10 -81 9 -37 -1 -65 2 -62 6 2 4 -9
4 -25 -1 -21 -6 -31 -5 -35 3 -3 9 -5 9 -5 0 -1 -9 -8 -10 -26 -3 -18 7 -25 6
-25 -3 0 -8 -3 -8 -9 2 -7 10 -10 10 -13 1 -3 -9 -9 -8 -21 4 -16 16 -17 16
-17 -1 0 -15 -2 -16 -10 -3 -7 11 -10 11 -10 2 0 -10 -5 -10 -20 -2 -15 8 -20
8 -20 -1 0 -7 -5 -8 -12 -3 -7 5 -34 9 -60 8 -32 0 -45 3 -41 10 4 6 -1 5 -10
-2 -9 -8 -22 -12 -29 -9 -7 2 -21 0 -31 -5 -10 -5 -17 -5 -17 1 0 6 -16 8 -35
7 -37 -4 -54 7 -33 21 7 4 24 8 38 9 14 1 30 2 35 4 22 5 36 0 29 -12 -6 -9
-3 -9 9 1 9 7 23 11 31 8 7 -3 19 0 25 6 9 9 11 8 6 -5 -6 -16 8 -19 30 -7 6
3 53 6 107 5 53 -1 94 2 92 6 -3 4 2 5 10 2 9 -3 13 -11 9 -18 -3 -6 3 -3 14
7 14 12 23 15 28 8 3 -6 11 -11 16 -11 6 0 7 4 4 10 -3 6 1 7 9 4 9 -3 16 -10
16 -16 0 -5 5 -6 10 -3 6 4 7 11 4 17 -4 6 1 6 14 -1 16 -9 24 -7 38 7 16 16
17 16 11 0 -5 -14 -1 -16 24 -13 17 2 29 -1 29 -8 0 -7 5 -4 10 5 8 13 16 15
42 7 32 -9 63 4 52 22 -3 5 1 9 8 9 9 0 9 3 -2 10 -8 5 -10 10 -4 10 7 0 10
13 7 33 -2 17 -4 38 -5 45 -1 6 -5 12 -9 12 -7 0 -21 35 -23 60 -1 8 -7 14
-14 13 -6 -2 -9 3 -6 11 3 7 -1 20 -8 27 -14 16 -21 34 -22 61 0 9 -4 14 -8
12 -7 -5 -12 10 -9 29 0 4 -3 7 -9 7 -6 0 -9 3 -8 8 4 16 -38 92 -51 92 -11 0
-11 3 -1 15 11 13 10 14 -6 8 -10 -3 -22 -11 -26 -17 -5 -8 -8 -8 -8 0 0 7 -7
15 -16 18 -12 5 -15 2 -10 -10 5 -13 3 -14 -7 -6 -7 6 -35 10 -63 10 -27 -1
-56 2 -64 7 -10 6 -12 4 -7 -11 7 -18 6 -18 -7 -1 -10 14 -15 15 -19 5 -4 -10
-8 -10 -16 2 -8 12 -11 12 -11 1 0 -10 -3 -11 -14 -2 -10 8 -16 9 -21 1 -4 -7
-13 -7 -27 1 -15 8 -19 8 -14 0 4 -6 0 -11 -9 -11 -9 0 -13 5 -9 11 5 8 1 8
-13 0 -14 -7 -24 -7 -33 2 -10 10 -12 8 -6 -7 7 -20 7 -20 -15 0 -12 10 -19
13 -15 7 4 -7 2 -13 -3 -13 -6 0 -11 4 -11 8 0 5 -13 7 -30 4 -19 -3 -27 -8
-23 -16 3 -6 -3 -3 -14 7 -16 14 -23 15 -29 6 -5 -8 -3 -10 6 -4 9 5 11 4 6
-4 -6 -8 -12 -9 -20 -2 -9 7 -17 7 -26 -2 -10 -9 -11 -9 -6 0 5 9 2 11 -8 7
-9 -3 -13 -11 -9 -18 4 -6 -1 -5 -10 3 -13 10 -17 10 -17 1 0 -7 -7 -10 -15
-6 -8 3 -19 -2 -24 -12 -6 -9 -11 -13 -11 -8 0 6 -7 1 -16 -10 -8 -10 -13 -13
-9 -6 3 6 2 12 -3 12 -5 0 -12 -10 -15 -21 -4 -15 -11 -20 -22 -15 -9 3 -13 2
-10 -4 3 -6 1 -10 -5 -10 -6 0 -8 -4 -5 -10 4 -6 -1 -7 -12 -3 -10 3 -15 3
-12 -1 4 -4 -6 -21 -22 -39 -16 -17 -29 -37 -29 -44 0 -7 -4 -13 -9 -13 -5 0
-13 -10 -17 -22 -3 -12 -13 -36 -20 -55 -8 -18 -14 -35 -14 -38 0 -3 -6 -21
-14 -40 -10 -22 -11 -35 -4 -35 7 0 6 -5 -2 -15 -7 -8 -10 -24 -7 -35 3 -11 2
-20 -2 -20 -3 0 -6 -15 -5 -32 2 -18 4 -61 6 -95 1 -35 6 -63 11 -63 4 0 7 -5
7 -11 0 -5 -6 -7 -12 -3 -7 4 -6 -1 3 -12 9 -10 14 -25 12 -31 -3 -7 0 -13 6
-13 6 0 10 -3 10 -7 -1 -5 0 -10 1 -13 10 -26 8 -70 -4 -101 -17 -42 -24 -71
-32 -139 -4 -25 -8 -47 -10 -49 -2 -2 2 -11 9 -19 9 -13 9 -14 0 -8 -15 9 -15
9 -4 -32 7 -23 6 -32 -2 -32 -8 0 -8 -3 -2 -8 6 -4 11 -16 12 -27 8 -64 14
-90 23 -99 5 -5 10 -18 10 -28 0 -10 4 -18 10 -18 5 0 7 -7 4 -15 -4 -8 -1
-15 6 -15 6 0 8 -4 5 -10 -3 -5 -1 -10 6 -10 7 0 10 -3 6 -6 -3 -4 4 -15 16
-26 12 -11 16 -17 10 -13 -9 4 -11 1 -7 -9 3 -9 10 -13 15 -10 5 3 9 1 9 -3 0
-5 7 -18 16 -29 8 -10 13 -12 9 -4 -4 8 1 6 9 -4 9 -11 16 -23 16 -28 0 -4 7
-5 15 -2 9 4 15 0 15 -10 0 -9 5 -17 10 -17 6 -1 16 -2 23 -3 6 -1 11 -7 10
-13 -1 -6 8 -10 22 -8 13 1 22 -2 19 -6 -3 -5 9 -9 25 -9 17 0 31 -4 31 -9 0
-11 19 -9 38 3 7 4 12 4 11 -1 -3 -20 2 -27 11 -13 8 13 11 12 25 -5 8 -11 13
-13 10 -5 -4 11 2 15 20 15 14 0 25 -4 25 -9 0 -5 6 -3 14 3 11 9 15 9 19 -1
3 -7 6 -8 6 -3 1 11 92 12 109 1 6 -3 13 0 15 6 4 10 8 9 16 -2 10 -13 12 -13
21 0 9 13 10 13 10 0 0 -12 2 -12 9 -1 7 10 13 11 30 2 13 -8 21 -8 21 -2 0 7
9 7 25 1 18 -7 25 -6 25 3 0 8 4 7 10 -3 5 -8 10 -10 10 -5 0 11 71 12 89 1 6
-4 11 -4 11 1 0 10 112 9 128 -1 7 -4 12 -2 12 5 0 8 4 8 15 -1 15 -12 20 -4
16 23 -1 4 6 10 14 13 8 4 15 13 15 22 0 21 10 10 15 -17 6 -32 55 -79 95 -93
30 -10 588 -15 860 -8 51 1 136 27 125 38 -2 3 3 12 13 21 20 19 44 69 38 80
-3 4 -1 13 4 21 5 9 5 19 -2 27 -6 7 -6 13 -1 13 5 0 9 9 9 20 0 11 -4 20 -8
20 -5 0 -4 8 1 18 5 10 6 24 1 32 -5 8 -5 21 1 31 6 12 5 20 -1 24 -6 4 -7 12
-3 18 11 17 10 77 -1 77 -6 0 -5 5 2 12 7 7 8 17 1 30 -5 10 -6 18 -1 18 4 0
8 9 8 20 0 11 -4 20 -7 20 -4 0 -4 13 1 29 4 15 4 34 0 42 -5 7 -4 21 1 30 6
12 5 20 -1 24 -6 4 -7 12 -3 18 11 17 10 77 -1 77 -6 0 -5 5 2 12 7 7 8 17 1
30 -5 10 -6 18 -1 18 4 0 8 9 8 20 0 11 -4 20 -7 20 -4 0 -4 13 1 29 4 15 4
34 0 42 -5 7 -4 21 1 30 6 12 5 20 -1 24 -6 4 -7 12 -3 18 10 15 10 38 0 55
-5 6 -4 12 0 12 22 0 -10 213 -44 300 -23 57 -47 104 -58 112 -5 4 -6 8 -2 8
5 0 -1 12 -12 26 -19 25 -20 27 -3 52 21 33 32 48 53 70 9 9 20 27 23 40 4 12
12 22 17 22 5 0 9 9 9 20 0 11 -4 20 -10 20 -15 0 -50 -33 -50 -47 0 -7 -3
-13 -7 -13 -5 0 -19 -17 -33 -37 -45 -66 -45 -66 -97 -12 -27 27 -53 49 -60
49 -6 0 -13 4 -15 9 -4 11 -118 68 -154 77 -43 10 -234 12 -234 3z m-1146
-1167 c3 -5 -1 -9 -9 -9 -8 0 -12 4 -9 9 3 4 7 8 9 8 2 0 6 -4 9 -8z m246 -11
c0 12 2 12 10 -1 8 -12 10 -12 10 -1 0 10 3 11 13 2 10 -8 17 -7 25 1 7 7 12
8 12 4 0 -5 6 -3 14 3 11 9 16 9 22 0 13 -22 11 -66 -2 -66 -7 0 -11 4 -8 9 3
4 0 8 -5 8 -6 0 -11 -5 -11 -12 0 -6 -7 -3 -16 8 -8 10 -12 13 -8 5 5 -11 2
-13 -15 -8 -19 5 -21 3 -9 -11 7 -9 -1 -6 -16 8 -17 15 -27 19 -24 10 4 -12
-3 -15 -31 -14 -59 3 -62 4 -56 14 3 6 1 10 -4 10 -6 0 -11 -10 -11 -22 -1
-21 -2 -21 -11 -5 -8 14 -14 15 -31 6 -15 -8 -19 -8 -14 0 9 13 9 13 -32 2
-33 -10 -66 -5 -57 8 2 4 -2 8 -9 8 -8 0 -12 -5 -10 -12 3 -6 -5 -11 -16 -11
-11 0 -20 6 -20 13 0 7 -5 13 -11 13 -5 0 -7 -5 -3 -11 4 -8 0 -8 -15 0 -11 7
-21 9 -21 5 0 -4 -2 -5 -5 -2 -9 8 6 38 16 32 5 -3 9 1 9 8 0 10 3 9 11 -2 8
-11 12 -12 16 -2 2 6 11 12 19 12 9 0 13 -4 10 -8 -7 -11 35 -9 53 2 8 5 16 3
22 -5 7 -12 9 -11 9 1 0 12 2 12 9 2 9 -16 20 -15 39 1 10 8 16 7 23 -4 7 -12
9 -12 9 1 0 13 1 13 10 0 8 -12 10 -12 10 -1 0 10 3 11 14 2 10 -8 16 -9 21
-1 3 6 10 8 15 5 5 -3 12 0 16 6 5 9 11 7 21 -6 9 -14 13 -15 13 -4z"/>
<path d="M486 1542 c-3 -5 1 -9 9 -9 8 0 12 4 9 9 -3 4 -7 8 -9 8 -2 0 -6 -4
-9 -8z"/>
<path d="M1026 1532 c-3 -5 1 -9 9 -9 8 0 12 4 9 9 -3 4 -7 8 -9 8 -2 0 -6 -4
-9 -8z"/>
</g>
</svg>
